<?xml version="1.0" standalone="no"?>
<!DOCTYPE svg PUBLIC "-//W3C//DTD SVG 20010904//EN"
 "http://www.w3.org/TR/2001/REC-SVG-20010904/DTD/svg10.dtd">
<svg version="1.0" xmlns="http://www.w3.org/2000/svg"
 width="2048.000000pt" height="2048.000000pt" viewBox="0 0 2048.000000 2048.000000"
 preserveAspectRatio="xMidYMid meet">
<metadata>
Created by potrace 1.14, written by Peter Selinger 2001-2017
</metadata>
<g transform="translate(0.000000,2048.000000) scale(0.100000,-0.100000)"
fill="#000000" stroke="none">
<path d="M1659 20476 c-2 -2 -33 -7 -69 -10 -661 -68 -1276 -563 -1489 -1201
-30 -90 -59 -198 -67 -245 -2 -14 -6 -34 -8 -45 -3 -11 -8 -47 -13 -80 -10
-75 -11 -17192 -1 -17295 33 -332 201 -714 426 -973 243 -277 580 -485 926
-572 75 -18 80 -19 141 -29 22 -4 56 -10 75 -14 19 -3 3903 -7 8630 -9 8705
-2 8700 -2 8806 30 10 4 30 8 44 11 110 19 303 87 425 149 350 179 622 452
800 802 53 105 124 290 139 365 3 14 12 57 20 95 8 39 19 108 25 155 10 94 10
17250 0 17285 -4 11 -10 43 -13 70 -4 28 -19 95 -33 150 -103 412 -351 776
-703 1031 -30 22 -62 43 -70 47 -8 4 -28 16 -45 27 -146 96 -435 204 -633 235
-23 4 -54 9 -70 13 -29 6 -17236 15 -17243 8z"/>
</g>
</svg>
